<?xml version="1.0" standalone="no"?>
<!DOCTYPE svg PUBLIC "-//W3C//DTD SVG 1.1//EN" "http://www.w3.org/Graphics/SVG/1.1/DTD/svg11.dtd" >
<svg xmlns="http://www.w3.org/2000/svg">
<metadata>Generated by IcoMoon</metadata>
<defs>
<font id="allertravel" horiz-adv-x="1024">
<font-face units-per-em="1024" ascent="960" descent="-64" />
<missing-glyph horiz-adv-x="1024" />
<glyph unicode="&#x20;" horiz-adv-x="512" d="" />
<glyph unicode="&#xe900;" glyph-name="camera" d="M393.846 802.462h236.308l72.074-78.769h124.849c43.323 0 78.769-35.446 78.769-78.769v-472.615c0-43.323-35.446-78.769-78.769-78.769h-630.154c-43.323 0-78.769 35.446-78.769 78.769v472.615c0 43.323 35.446 78.769 78.769 78.769h124.849l72.074 78.769zM512 211.692c108.702 0 196.923 88.222 196.923 196.923s-88.222 196.923-196.923 196.923c-108.702 0-196.923-88.222-196.923-196.923s88.222-196.923 196.923-196.923zM512 290.462c-65.255 0-118.154 52.899-118.154 118.154s52.899 118.154 118.154 118.154c65.255 0 118.154-52.899 118.154-118.154s-52.899-118.154-118.154-118.154z" />
<glyph unicode="&#xe901;" glyph-name="category" d="M840.625 627.165c0-39.493-32.265-71.544-72.019-71.544s-72.019 32.052-72.019 71.544c0 39.493 32.265 71.544 72.019 71.544s72.019-32.052 72.019-71.544zM936.65 794.102h-276.074c-7.058 0-22.518-6.344-27.511-11.304l-348.718-346.418 292.207-290.28 348.718 346.418c4.993 4.96 11.379 20.319 11.379 27.33v274.254zM948.654 841.798h-0.048c19.829 0 36.010-16.121 36.010-35.772v-286.178c0-19.651-11.427-47.124-25.447-61.051l-357.168-354.813c-7.010-6.964-16.228-10.445-25.447-10.445s-18.437 3.482-25.447 10.445l-309.155 307.117c-14.020 13.927-14.020 36.678 0 50.606l357.168 354.813c13.972 13.88 41.675 25.279 61.457 25.279h288.078zM500.405 841.798v0.048l-408.11-405.419 326.152-324.001-8.498-8.442c-6.962-6.964-16.228-10.445-25.447-10.445s-18.437 3.482-25.447 10.445l-309.155 307.117c-14.020 13.927-14.020 36.678 0 50.606l357.168 354.813c13.972 13.88 41.675 25.279 61.457 25.279h31.881z" />
<glyph unicode="&#xe902;" glyph-name="check" d="M414.159 205.824c-9.704 0-18.993 3.852-25.868 10.703l-187.148 187.197c-14.287 14.287-14.287 37.449 0 51.712 14.287 14.287 37.425 14.287 51.712 0l161.304-161.304 390.973 390.997c14.287 14.287 37.425 14.287 51.712 0 14.287-14.263 14.287-37.425 0-51.712l-416.817-416.866c-6.851-6.851-16.165-10.728-25.868-10.728z" />
<glyph unicode="&#xe903;" glyph-name="cross" d="M787.7 135.729c-9.362 0-18.725 3.56-25.868 10.703l-249.832 249.856-249.832-249.832c-14.287-14.287-37.425-14.287-51.712 0-7.144 7.144-10.703 16.506-10.703 25.868s3.56 18.725 10.703 25.868l249.832 249.807-249.832 249.832c-7.144 7.144-10.703 16.506-10.703 25.868s3.56 18.725 10.703 25.868c14.287 14.287 37.425 14.287 51.712 0l249.832-249.856 249.832 249.832c14.287 14.287 37.425 14.287 51.712 0 7.144-7.144 10.703-16.506 10.703-25.868s-3.56-18.725-10.703-25.868l-249.832-249.807 249.832-249.832c7.144-7.144 10.703-16.506 10.703-25.868s-3.56-18.725-10.703-25.868-16.506-10.703-25.844-10.703z" />
<glyph unicode="&#xe904;" glyph-name="date" d="M525.036 13.351h-461.233c-16.305 0-29.538 13.233-29.538 29.538v807.188c0 16.305 13.233 29.538 29.538 29.538h896.906c16.305 0 29.538-13.233 29.538-29.538v-388.608c0-16.305-13.233-29.538-29.538-29.538s-29.538 13.233-29.538 29.538v359.070h-837.829v-748.15h431.695c16.305 0 29.538-13.233 29.538-29.538s-13.233-29.499-29.538-29.499zM771.23-14.021c-122.171 0-221.538 99.367-221.538 221.538s99.367 221.538 221.538 221.538 221.538-99.367 221.538-221.538-99.367-221.538-221.538-221.538zM771.23 369.979c-89.561 0-162.462-72.901-162.462-162.462s72.901-162.462 162.462-162.462 162.462 72.901 162.462 162.462-72.901 162.462-162.462 162.462zM869.691 158.287h-98.462c-16.305 0-29.538 13.233-29.538 29.538 0 0.709 0.039 1.378 0.079 2.127-0.039 0.709-0.079 1.378-0.079 2.087v108.071c0 16.305 13.233 29.538 29.538 29.538s29.538-13.233 29.538-29.538v-82.747h68.923c16.305 0 29.538-13.233 29.538-29.538s-13.233-29.538-29.538-29.538zM439.375 158.287h-31.035c-16.305 0-29.538 13.233-29.538 29.538s13.233 29.538 29.538 29.538h31.074c16.305 0 29.538-13.233 29.538-29.538s-13.273-29.538-29.578-29.538zM256.512 158.287h-31.035c-16.305 0-29.538 13.233-29.538 29.538s13.233 29.538 29.538 29.538h31.074c16.305 0 29.538-13.233 29.538-29.538s-13.273-29.538-29.578-29.538zM439.375 275.574h-31.035c-16.305 0-29.538 13.233-29.538 29.538s13.233 29.538 29.538 29.538h31.074c16.305 0 29.538-13.233 29.538-29.538s-13.273-29.538-29.578-29.538zM256.512 275.574h-31.035c-16.305 0-29.538 13.233-29.538 29.538s13.233 29.538 29.538 29.538h31.074c16.305 0 29.538-13.233 29.538-29.538s-13.273-29.538-29.578-29.538zM622.238 398.769h-31.035c-16.305 0-29.538 13.233-29.538 29.538s13.233 29.538 29.538 29.538h31.035c16.305 0 29.538-13.233 29.538-29.538s-13.233-29.538-29.538-29.538zM439.375 398.769h-31.035c-16.305 0-29.538 13.233-29.538 29.538s13.233 29.538 29.538 29.538h31.074c16.305 0 29.538-13.233 29.538-29.538s-13.273-29.538-29.578-29.538zM256.512 398.769h-31.035c-16.305 0-29.538 13.233-29.538 29.538s13.233 29.538 29.538 29.538h31.074c16.305 0 29.538-13.233 29.538-29.538s-13.273-29.538-29.578-29.538zM795.372 516.923h-24.143c-16.305 0-29.538 13.233-29.538 29.538s13.233 29.538 29.538 29.538h24.143c16.305 0 29.538-13.233 29.538-29.538s-13.233-29.538-29.538-29.538zM622.238 516.923h-31.035c-16.305 0-29.538 13.233-29.538 29.538s13.233 29.538 29.538 29.538h31.035c16.305 0 29.538-13.233 29.538-29.538s-13.233-29.538-29.538-29.538zM439.375 516.923h-31.035c-16.305 0-29.538 13.233-29.538 29.538s13.233 29.538 29.538 29.538h31.074c16.305 0 29.538-13.233 29.538-29.538s-13.273-29.538-29.578-29.538zM256.512 516.923h-31.035c-16.305 0-29.538 13.233-29.538 29.538s13.233 29.538 29.538 29.538h31.074c16.305 0 29.538-13.233 29.538-29.538s-13.273-29.538-29.578-29.538zM960.709 664.615h-895.882c-16.305 0-29.538 13.233-29.538 29.538s13.233 29.538 29.538 29.538h895.842c16.305 0 29.538-13.233 29.538-29.538s-13.194-29.538-29.499-29.538zM808.763 753.231c-16.305 0-29.538 13.233-29.538 29.538v133.75c0 16.305 13.233 29.538 29.538 29.538s29.538-13.233 29.538-29.538v-133.75c0-16.305-13.233-29.538-29.538-29.538zM614.124 753.231c-16.305 0-29.538 13.233-29.538 29.538v133.75c0 16.305 13.233 29.538 29.538 29.538s29.538-13.233 29.538-29.538v-133.75c0-16.305-13.233-29.538-29.538-29.538zM412.948 753.231c-16.305 0-29.538 13.233-29.538 29.538v133.75c0 16.305 13.233 29.538 29.538 29.538s29.538-13.233 29.538-29.538v-133.75c0-16.305-13.233-29.538-29.538-29.538zM218.309 753.231c-16.305 0-29.538 13.233-29.538 29.538v133.75c0 16.305 13.233 29.538 29.538 29.538s29.538-13.233 29.538-29.538v-133.75c0-16.305-13.233-29.538-29.538-29.538z" />
<glyph unicode="&#xe905;" glyph-name="dropdown" d="M302.934 526.769l209.066 236.308 209.066-236.308h-418.132zM302.934 369.231h418.132l-209.066-236.308-209.066 236.308z" />
<glyph unicode="&#xe906;" glyph-name="hamburger" d="M780.19 180.37h-536.381c-20.212 0-36.571 16.384-36.571 36.571s16.36 36.571 36.571 36.571h536.381c20.187 0 36.571-16.384 36.571-36.571s-16.384-36.571-36.571-36.571zM780.19 411.429h-536.381c-20.212 0-36.571 16.384-36.571 36.571 0 20.212 16.36 36.571 36.571 36.571h536.381c20.187 0 36.571-16.36 36.571-36.571 0-20.187-16.384-36.571-36.571-36.571zM780.19 642.487h-536.381c-20.212 0-36.571 16.36-36.571 36.571s16.36 36.571 36.571 36.571h536.381c20.187 0 36.571-16.36 36.571-36.571s-16.384-36.571-36.571-36.571z" />
<glyph unicode="&#xe907;" glyph-name="kebab" d="M512 216.381c-33.663 0-60.952 27.289-60.952 60.952s27.289 60.952 60.952 60.952c33.663 0 60.952-27.289 60.952-60.952s-27.289-60.952-60.952-60.952zM512 423.619c-33.663 0-60.952 27.289-60.952 60.952s27.289 60.952 60.952 60.952c33.663 0 60.952-27.289 60.952-60.952s-27.289-60.952-60.952-60.952zM512 630.857c-33.663 0-60.952 27.289-60.952 60.952s27.289 60.952 60.952 60.952c33.663 0 60.952-27.289 60.952-60.952s-27.289-60.952-60.952-60.952z" />
<glyph unicode="&#xe908;" glyph-name="location" d="M531.692 841.846c-163.151 0-295.385-132.234-295.385-295.385 0-295.385 295.385-492.308 295.385-492.308s295.385 196.923 295.385 492.308c0 163.151-132.234 295.385-295.385 295.385zM634.732 232.025c-38.006-44.751-76.554-79.163-103.040-100.726-26.535 21.612-65.034 55.975-103.040 100.726-38.646 45.489-69.268 92.702-91.028 140.308-26.388 57.649-39.729 116.234-39.729 174.129 0 62.474 24.32 121.206 68.48 165.366s102.892 68.48 165.366 68.48c62.474 0 121.206-24.32 165.366-68.48s68.48-102.892 68.48-165.366c0-57.846-13.391-116.431-39.729-174.129-21.76-47.606-52.382-94.818-91.028-140.308h-0.098zM531.692 694.154c-54.4 0-98.462-44.062-98.462-98.462s44.062-98.462 98.462-98.462c54.4 0 98.462 44.062 98.462 98.462s-44.062 98.462-98.462 98.462zM531.692 546.462c-27.175 0-49.231 22.055-49.231 49.231s22.055 49.231 49.231 49.231c27.175 0 49.231-22.055 49.231-49.231s-22.055-49.231-49.231-49.231z" />
<glyph unicode="&#xe909;" glyph-name="mail" horiz-adv-x="1001" d="M762.155 691.682h-521.309c-35.84 0-64.838-29.324-64.838-65.164l-0.326-390.982c0-35.84 29.324-65.164 65.164-65.164h521.309c35.84 0 65.164 29.324 65.164 65.164v390.982c0 35.84-29.324 65.164-65.164 65.164zM762.155 561.355l-260.655-162.909-260.655 162.909v65.164l260.655-162.909 260.655 162.909v-65.164z" />
<glyph unicode="&#xe90a;" glyph-name="phone" horiz-adv-x="1048" d="M309.149 493.89c54.613-107.33 142.601-194.939 249.932-249.932l83.437 83.437c10.24 10.24 25.41 13.653 38.684 9.102 42.477-14.033 88.367-21.618 135.396-21.618 20.859 0 37.926-17.067 37.926-37.926v-132.361c0-20.859-17.067-37.926-37.926-37.926-356.124 0-644.741 288.616-644.741 644.741 0 20.859 17.067 37.926 37.926 37.926h132.741c20.859 0 37.926-17.067 37.926-37.926 0-47.407 7.585-92.919 21.618-135.396 4.172-13.274 1.138-28.065-9.481-38.684l-83.437-83.437z" />
<glyph unicode="&#xe90b;" glyph-name="play" d="M256 802.462v-708.923l512 354.462z" />
<glyph unicode="&#xe90c;" glyph-name="search" d="M664.202 356.598h-32.021l-11.349 10.944c39.722 46.208 63.637 106.197 63.637 171.455 0 145.514-117.951 263.465-263.465 263.465s-263.465-117.951-263.465-263.465c0-145.514 117.951-263.465 263.465-263.465 65.258 0 125.247 23.915 171.455 63.637l10.944-11.349v-32.021l202.665-202.26 60.394 60.394-202.26 202.665zM421.003 356.598c-100.927 0-182.399 81.471-182.399 182.399s81.471 182.399 182.399 182.399c100.927 0 182.399-81.471 182.399-182.399s-81.471-182.399-182.399-182.399z" />
<glyph unicode="&#xe90d;" glyph-name="down" d="M512 253.903c-10.167 0-19.87 4.242-26.795 11.678l-256 275.675c-13.751 14.799-12.898 37.937 1.926 51.688 14.799 13.751 37.937 12.898 51.688-1.926l229.181-246.808 229.181 246.833c13.726 14.799 36.864 15.653 51.688 1.926 14.799-13.726 15.677-36.888 1.926-51.688l-255.976-275.675c-6.949-7.461-16.652-11.703-26.819-11.703z" />
<glyph unicode="&#xe90e;" glyph-name="left" d="M630.15 155.429c-8.899 0-17.822 3.243-24.893 9.752l-275.675 256c-7.461 6.924-11.678 16.652-11.678 26.819s4.242 19.87 11.678 26.795l275.675 256c14.799 13.751 37.937 12.898 51.688-1.926 13.726-14.799 12.873-37.937-1.926-51.688l-246.808-229.181 246.808-229.181c14.799-13.751 15.677-36.913 1.926-51.688-7.217-7.778-16.994-11.703-26.795-11.703z" />
<glyph unicode="&#xe90f;" glyph-name="right" d="M393.85 155.429c-9.826 0-19.602 3.925-26.819 11.678-13.751 14.775-12.898 37.937 1.926 51.688l246.833 229.205-246.833 229.205c-14.799 13.726-15.677 36.888-1.926 51.688 13.726 14.775 36.864 15.653 51.688 1.926l275.675-256c7.461-6.924 11.678-16.628 11.678-26.795s-4.242-19.87-11.678-26.819l-275.675-256.024c-7.022-6.51-15.945-9.752-24.869-9.752z" />
<glyph unicode="&#xe910;" glyph-name="up" d="M768 293.278c-9.801 0-19.602 3.925-26.819 11.678l-229.181 246.833-229.205-246.808c-13.726-14.799-36.864-15.653-51.688-1.926-14.799 13.751-15.677 36.913-1.926 51.688l256 275.675c13.824 14.897 39.741 14.897 53.614 0l256.024-275.675c13.726-14.775 12.873-37.937-1.926-51.688-7.070-6.534-15.994-9.777-24.893-9.777z" />
<glyph unicode="&#xe911;" glyph-name="airport" d="M885.701 261.766c8.48-2.754 15.419 2.314 15.419 11.276v56.932c0 8.962-6.275 20.042-13.927 24.637l-296.412 177.527c-7.653 4.579-13.927 15.675-13.927 24.621v198.888c0 8.962-2.724 23.089-6.064 31.415 0 0-17.689 44.125-48.64 49.046-3.308 0.587-6.664 1.010-10.036 1.010h-0.162c-3.907 0.033-7.766-0.456-11.56-1.173l-3.502-0.782-5.318-1.662c-25.747-8.636-39.009-46.194-39.009-46.194-2.983-8.457-5.415-22.698-5.415-31.66v-198.888c0-8.962-6.275-20.042-13.927-24.637l-296.412-177.51c-7.653-4.595-13.927-15.675-13.927-24.637v-56.932c0-8.962 6.939-14.029 15.419-11.259l293.429 95.729c8.48 2.754 15.419-2.314 15.419-11.276v-155.334c0-8.962-5.837-20.71-12.971-26.087l-38.912-29.362c-7.134-5.377-12.971-17.125-12.971-26.087v-38.080c0-8.962 7.020-14.274 15.581-11.797l98.496 28.434c8.561 2.477 22.601 2.477 31.162 0l98.593-28.434c8.561-2.477 15.581 2.835 15.581 11.797v38.096c0 8.962-5.837 20.71-12.971 26.087l-38.912 29.362c-7.118 5.377-12.971 17.125-12.971 26.087v155.334c0 8.962 6.939 14.029 15.419 11.259l293.429-95.745z" />
<glyph unicode="&#xe912;" glyph-name="bank" d="M720.834 435.013c-24.679 18.386-61.714 33.075-111.106 44.052l-37.893 8.447v152.892l5.131-1.978c32.161-15.386 49.443-44.506 51.812-76.932h128.988c-2.351 64.853-27.716 112.812-76.096 146.698-32.144 22.52-68.802 36.999-109.836 44.295v84.634h-120.133v-82.039c-55.553-6.485-99.607-23.38-131.957-50.845-42.355-35.961-63.516-81.099-63.516-135.446 0-59.552 21.641-103.328 64.923-131.328 24.232-15.873 67.909-30.611 130.55-44.262v-165.635c-22.842 5.95-40.742 15.743-53.356 29.897-12.168 13.749-20.32 28.406-24.473 60.832h-128.113c0-64.853 24.215-111.386 72.663-147.476 34.976-26.039 79.494-41.863 133.279-48.721v-63.216h120.133v62.146c57.2 6.469 103.383 23.72 138.359 51.948 45.359 36.642 68.047 82.688 68.047 138.121 0 54.071-19.135 95.367-57.406 123.919zM411.681 529.326c-20.852 10.701-31.269 26.947-31.269 48.64 0 23.607 10.572 42.106 31.715 55.271 11.155 6.956 24.438 12.014 39.575 15.354v-133.338c-18.621 5.123-32.058 9.825-40.021 14.073zM591.451 230.887c-5.955-1.946-12.597-3.551-19.616-4.961v141.007c20.68-5.788 37.001-12.095 48.877-18.872 18.741-10.976 28.128-26.59 28.128-46.613-0.017-34.307-19.153-57.93-57.389-70.56z" />
<glyph unicode="&#xe913;" glyph-name="cafe" d="M745.682 755.2h-499.922v-463.773c0-37.789 32.138-68.707 71.417-68.707h357.087c39.28 0 71.417 30.918 71.417 68.707v85.884c108.483 0 196.398 84.596 196.398 188.945s-87.915 188.945-196.398 188.945zM737.28 468.48v204.8c67.871 0 122.88-45.841 122.88-102.4 0-56.542-55.009-102.4-122.88-102.4zM122.88 181.76v-37.7c0-31.064 36.846-44.22 81.92-44.22h655.36c45.056 0 81.92 13.156 81.92 44.22v37.7h-819.2z" />
<glyph unicode="&#xe914;" glyph-name="car" d="M815.923 754.79c-8.192 24.166-31.13 41.37-58.163 41.37h-450.56c-27.034 0-49.562-17.203-58.163-41.37l-85.197-245.35v-327.68c0-22.528 18.432-40.96 40.96-40.96h40.96c22.528 0 40.96 18.432 40.96 40.96v40.96h491.52v-40.96c0-22.528 18.432-40.96 40.96-40.96h40.96c22.528 0 40.96 18.432 40.96 40.96v327.68l-85.197 245.35zM307.2 345.6c-33.997 0-61.44 27.443-61.44 61.44s27.443 61.44 61.44 61.44c33.997 0 61.44-27.443 61.44-61.44s-27.443-61.44-61.44-61.44zM757.76 345.6c-33.997 0-61.44 27.443-61.44 61.44s27.443 61.44 61.44 61.44c33.997 0 61.44-27.443 61.44-61.44s-27.443-61.44-61.44-61.44zM245.76 550.4l61.44 184.32h450.56l61.44-184.32h-573.44z" />
<glyph unicode="&#xe915;" glyph-name="doctor" d="M802.608 638.42h-79.834v86.534c0 61.862-47.797 112.166-108.532 112.166h-204.466c-60.768 0-108.548-50.304-108.548-112.166v-86.534h-79.851c-54.412 0-98.496-42.903-98.496-98.307v-380.957c0-55.388 44.084-100.277 98.496-100.277h581.232c54.396 0 98.512 44.89 98.512 100.294v380.94c0 55.404-44.116 98.307-98.512 98.307zM368.64 712.591c0 21.489 20.58 42.609 42.928 42.609h200.879c22.285 0 42.912-21.12 42.912-42.609v-80.271h-286.72v80.271zM696.32 258.095h-117.295v-117.295h-134.051v117.295h-117.295v134.051h117.295v117.295h134.051v-117.295h117.295v-134.051z" />
<glyph unicode="&#xe916;" glyph-name="gas-station" d="M817.116 677.294c8.321 8.076 20.037 16.859 31.995 27.451l11.049 8.988-30.116 32.806-9.837-8.93c-41.62-36.704-66.658-58.888-78.89-104.36-12.14-45.207-12.625-90.973-11.352-133.753 1.334-44.104 3.046-73.202 15.748-105.655l4.789-11.96c12.186-29.761 30.631-74.718 30.631-132.547 0-69.863-29.161-105.302-86.665-105.302-52.32 0-80.542 33.894-83.846 100.859-1.5 29.672 7.078 66.303 16.096 105.008 7.624 32.673 15.475 66.479 19.34 102.36 4.274 39.558-1.076 67.833-16.733 84.809-20.098 21.787-51.032 23.714-78.283 23.714h-8.291v203.91c0 17.653-13.201 31.467-31.283 31.467h-312.845c-18.051 0-34.784-13.814-34.784-31.467v-645.243h378.913v397.199h8.306c18.642 0 37.952-2.030 44.515-9.136 3.516-3.825 8.912-16.212 5.35-49.621-3.592-33.306-11.201-66.244-18.536-97.623-9.715-41.765-18.93-81.485-17.112-117.292 4.471-90.9 51.593-143.139 129.194-143.139 82.709 0 132.089 55.873 132.089 149.582 0 66.332-21.143 118.012-33.829 148.979l-4.577 11.283c-9.124 23.376-11.17 45.045-12.428 82.853 14.596 0.324 32.268 0.662 40.21 0.662 18.173 0 27.312 10.342 31.207 28.26 2.273 10.445-1.243 24.141-1.243 49.003v6.591c-0.015 65.714-10.367 84.486-28.782 100.241zM491.52 550.4h-286.72v204.8h286.72v-204.8zM815.008 548.646c0-15.012 4.738-29.37 4.14-38.501-12.318-0.155-26.489-0.43-40.908-0.705 0.536 33.17 4.944 66.943 15.098 99.46 2.76 8.667 1.936 16.301 6.097 23.42 10.979-8.821 15.572-22.045 15.572-75.936v-7.738z" />
<glyph unicode="&#xe917;" glyph-name="laundry" d="M204.8 660.247v-548.382c0-23.892 20.787-52.985 46.379-52.985h558.199c25.525 0 50.782 29.093 50.782 52.985v548.382h-655.36zM515.234 235.753c-95.244 0-172.463 79.173-172.463 176.873s77.219 176.873 172.463 176.873c95.244 0 172.463-79.173 172.463-176.873 0-97.717-77.219-176.873-172.463-176.873zM809.378 837.12h-558.199c-25.593 0-46.379-18.271-46.379-44.307v-97.192h655.36v97.192c0 26.036-25.257 44.307-50.782 44.307zM411.756 730.996h-172.463v70.749h172.463v-70.749zM756.659 730.996c-19.067 0-34.47 15.835-34.47 35.391 0 19.523 15.403 35.358 34.47 35.358s34.516-15.835 34.516-35.358c-0.015-19.539-15.449-35.391-34.516-35.391z" />
<glyph unicode="&#xe918;" glyph-name="restaurant" d="M483.328 822.005v-179.448h-32.768v178.346c0 8.95-7.34 16.213-16.384 16.213s-16.384-7.264-16.384-16.213v-178.346h-32.768v178.929c0 20.866-32.768 20.153-32.768 0.535v-179.464h-32.768v178.184c0 22.099-32.768 21.288-32.768 0.876v-234.638c0-33.837 32.768-56.146 65.536-56.146v-423.312c0-64.853 98.304-64.853 98.304 0v423.295c32.768 0 65.536 26.946 65.536 52.32v238.351c0 20.672-32.768 19.877-32.768 0.519zM630.784 772.263v-405.331h32.768v-259.412c0-64.853 114.688-64.853 114.688 0v664.743c0 81.066-147.456 81.066-147.456 0z" />
<glyph unicode="&#xe919;" glyph-name="shopping" d="M908.643 327.102c18.457 0 33.437-14.207 33.437-31.711s-14.98-31.711-33.437-31.711h-582c-12.121 0-23.289 6.231-29.174 16.268-5.918 10.021-5.634 22.309 0.719 32.092l35.109 53.988-89.276 325.751h-87.705c-18.457 0-33.437 14.207-33.437 31.711s14.98 31.711 33.437 31.711h113.551c15.23 0 28.538-9.751 32.367-23.736l6.537-23.831h566.435c18.39 0 33.437-14.27 33.437-31.711v-210.085c0-17.441-15.013-32.456-33.387-33.344l-484.548-23.878 10.884-39.734c2.29-8.372 0.886-17.267-3.895-24.624l-11.151-17.156h522.098zM389.12 99.84c-33.932 0-61.44 27.508-61.44 61.44s27.508 61.44 61.44 61.44c33.932 0 61.44-27.508 61.44-61.44s-27.508-61.44-61.44-61.44zM839.68 99.84c-33.932 0-61.44 27.508-61.44 61.44s27.508 61.44 61.44 61.44c33.932 0 61.44-27.508 61.44-61.44s-27.508-61.44-61.44-61.44z" />
<glyph unicode="&#xe91a;" glyph-name="swimming" d="M983.040 99.84c-20.628 0-40.274 4.211-57.938 11.635-17.998 7.514-38.39 12.052-59.704 12.052-21.413 0-41.824-4.574-59.842-12.052-17.644-7.424-37.31-11.635-57.958-11.635-20.608 0-40.352 4.211-57.899 11.635-18.312 7.514-38.743 12.052-59.822 12.052-21.334 0-41.766-4.574-59.842-12.052-17.566-7.424-37.526-11.635-57.958-11.635-20.647 0-40.294 4.211-58.095 11.635-18.076 7.514-38.429 12.052-59.587 12.052-21.334 0-41.746-4.574-59.822-12.052-17.566-7.424-37.526-11.635-58.173-11.635-20.333 0-40.294 4.211-57.859 11.635-18.076 7.514-38.508 12.052-59.822 12.052-21.177 0-41.491-4.574-59.606-12.052-17.841-7.424-37.507-11.635-58.154-11.635v79.791c20.628 0 40.294 4.32 58.154 11.453 18.115 7.696 38.429 12.234 59.606 12.234 21.315 0 41.746-4.538 59.822-12.234 17.566-7.133 37.526-11.453 57.859-11.453 20.628 0 40.608 4.32 58.173 11.453 18.057 7.696 38.488 12.234 59.822 12.234 21.158 0 41.491-4.538 59.587-12.234 17.801-7.133 37.448-11.453 58.095-11.453 20.431 0 40.372 4.32 57.958 11.453 18.076 7.696 38.508 12.234 59.842 12.234 21.059 0 41.471-4.538 59.822-12.234 17.566-7.133 37.291-11.453 57.899-11.453 20.647 0 40.313 4.32 57.958 11.453 18.017 7.696 38.429 12.234 59.842 12.234 21.315 0 41.707-4.538 59.704-12.234 17.664-7.133 37.31-11.453 57.938-11.453v-79.791zM843.491 341.288c57.772 0 104.657 46.513 104.657 103.569 0 57.111-46.885 103.387-104.657 103.387-57.864 0-104.694-46.294-104.694-103.387 0-57.056 42.669-103.569 104.694-103.569zM180.527 292.436c8.891-1.963 17.279-4.823 25.247-8.15 17.962-7.515 38.372-11.982 59.183-11.982 21.072 0 41.523 4.449 59.464 11.982 18.483 7.739 39.355 12.636 61.17 12.636 21.634 0 42.466-4.898 60.929-12.636 18.182-7.515 38.292-11.982 59.404-11.982 20.872 0 41.302 4.449 59.243 11.982 18.504 7.739 39.375 12.636 61.19 12.636 21.554 0 42.446-4.898 61.17-12.636 17.982-7.515 38.131-11.982 59.243-11.982 15.353 0 30.144 2.411 44.091 6.468l-191.157 318.828 222.344 37.517c32.632 5.757 56.313 29.46 56.313 59.799 0 33.461-29.441 60.285-65.465 60.285l-7.426-0.206-343.46-57.799c-24.103-5.103-56.032-37.741-37.85-77.782l2.93-6.449 89.628-149.6-336.195-170.929z" />
<glyph unicode="&#xe91b;" glyph-name="train" d="M744.95 164.226l-2.398 4.43 2.419 3.322c22.304 8.9 42.57 19.913 60.715 32.894 18.123 13.125 30.262 32.279 36.522 57.605l4.563 20.261v523.368c0 12.633-3.905 25.737-11.608 39.066-7.703 13.555-17.317 25.675-28.967 36.442-11.523 10.664-24.362 19.708-38.708 26.885-14.346 7.055-28.012 10.541-41.149 10.541h-387.612c-12.372 0-25.721-3.281-40.003-9.987-14.325-6.726-27.461-15.319-39.345-25.778-11.927-10.356-21.795-22.148-29.498-35.129-7.725-13.227-11.608-25.983-11.608-38.759v-531.161c0-8.941 2.44-18.272 6.939-27.952 4.669-9.72 10.441-18.805 17.359-27.295 6.918-8.736 14.537-16.549 22.643-23.583s15.98-12.858 23.726-17.308c3.735-1.518 10.59-3.855 20.309-6.829 9.507-2.953 13.964-5.147 13.242-6.583l-158.653-232.676h92.547l115.806 162.193h319.491l115.679-162.193h93.757l-156.17 228.226zM450.56 860.426c0 3.713 1.665 7.508 5.224 11.668 3.425 4.038 6.889 5.986 10.429 5.986h133.606c1.339 0 4.229-1.42 8.381-4.322 4.114-2.963 6.2-5.905 6.2-8.847v-54.221c0-3.713-1.76-7.123-5.186-9.943-3.521-3.044-6.698-4.586-9.377-4.586h-134.62l-4.248 3.511c-2.009 1.42-4.344 3.369-6.755 6.108-2.449 2.476-3.655 5.195-3.655 8.137v46.51zM286.72 698.878c0 6.817 1.872 13.503 5.377 20.020 3.527 6.479 8.12 12.395 13.649 17.935 5.573 5.484 12.104 9.785 19.548 13.221 7.576 3.456 15.347 5.146 23.249 5.146h369.266c7.010 0 14.15-1.427 21.268-4.019 7.14-2.742 13.649-6.573 19.636-11.306 5.965-4.733 10.645-9.991 14.259-15.437 3.527-5.334 5.268-11.193 5.268-17.334v-108.607c0-6.16-1.916-11.982-5.878-17.841-3.962-5.953-9.099-11.099-15.434-15.531-6.422-4.357-13.018-7.963-20.202-10.592-7.097-2.911-14.237-4.132-21.312-4.132h-364.498l-6.008 0.92c-3.135 0.714-5.573 1.39-7.162 2.122-13.388 1.991-25.23 8.169-35.549 18.442-10.318 10.254-15.478 21.485-15.478 33.748v93.245zM391.648 241.050c-11.961-12.227-26.938-18.33-44.614-18.33-17.782 0-32.292 6.103-43.552 18.33-11.175 12.206-16.762 27.232-16.762 44.846 0 16.057 5.821 29.968 17.442 41.795 11.557 11.89 25.855 17.909 42.872 17.909 17.676 0 32.632-5.682 44.614-16.604 11.982-11.217 17.952-25.801 17.952-44.299 0-16.857-5.97-31.441-17.952-43.647zM673.203 241.050c-11.825 12.206-17.843 27.232-17.843 44.846 0 17.635 6.291 31.883 18.937 43.1 12.667 10.943 27.374 16.604 44.27 16.604 17.464 0 31.898-5.998 42.987-17.909 11.047-11.827 16.686-25.759 16.686-41.795 0-17.614-5.786-32.64-17.254-44.846-11.552-12.227-26.007-18.33-43.681-18.33-17.548 0-32.277 6.103-44.102 18.33z" />
<glyph unicode="&#xe91c;" glyph-name="walking" d="M552.96 714.24c45.056 0 81.92 36.864 81.92 81.92s-36.864 81.92-81.92 81.92c-45.056 0-81.92-36.864-81.92-81.92s36.864-81.92 81.92-81.92zM401.408 574.976l-114.688-577.536h86.016l73.728 327.68 86.016-81.92v-245.76h81.92v307.2l-86.016 81.92 24.576 122.88c53.248-61.44 135.168-102.4 225.28-102.4v81.92c-77.824 0-143.36 40.96-176.128 98.304l-40.96 65.536c-16.384 24.576-40.96 40.96-69.632 40.96-12.288 0-20.48-4.096-32.768-4.096l-212.992-90.112v-192.512h81.92v139.264l73.728 28.672z" />
<glyph unicode="&#xe91d;" glyph-name="windsurfing" d="M983.040-23.040c-19.511 0-38.591 4.353-55.438 11.679-17.298 7.786-36.789 12.331-57.202 12.331-20.197 0-39.708-4.526-57.006-12.331-17.023-7.325-35.908-11.679-55.634-11.679-19.707 0-38.591 4.353-55.458 11.679-17.298 7.786-36.809 12.331-57.221 12.331-20.177 0-39.688-4.526-57.104-12.331-16.827-7.325-35.771-11.679-55.517-11.679-19.629 0-38.611 4.353-55.419 11.679-17.415 7.786-36.809 12.331-57.202 12.331-20.314 0-39.708-4.526-57.104-12.331-16.945-7.325-35.81-11.679-55.536-11.679-19.766 0-38.611 4.353-55.517 11.679-17.258 7.786-36.809 12.331-57.123 12.331-20.412 0-39.845-4.526-57.104-12.331-16.925-7.325-35.79-11.679-55.536-11.679v80.158c19.746 0 38.611 4.353 55.517 11.679 17.258 7.594 36.711 12.139 57.104 12.139 20.314 0 39.845-4.526 57.123-12.139 16.925-7.345 35.771-11.679 55.517-11.679s38.591 4.353 55.517 11.679c17.396 7.594 36.789 12.139 57.104 12.139 20.412 0 39.806-4.526 57.202-12.139 16.808-7.345 35.79-11.679 55.419-11.679 19.746 0 38.689 4.353 55.517 11.679 17.415 7.594 36.926 12.139 57.104 12.139 20.412 0 39.924-4.526 57.221-12.139 16.867-7.345 35.751-11.679 55.458-11.679 19.727 0 38.611 4.353 55.634 11.679 17.298 7.594 36.809 12.139 57.006 12.139 20.412 0 39.904-4.526 57.202-12.139 16.847-7.345 35.927-11.679 55.438-11.679v-80.158h0.039zM171.983 427.52c29.881 0 54.116 23.312 54.116 51.997 0 28.647-24.235 51.978-54.116 51.978-29.803 0-54.019-23.331-54.019-51.978 0-28.704 24.215-51.997 54.019-51.997zM431.049 208.886h-161.705c-23.793 0-44.463 10.411-53.773 28.809l-59.818 121.191c-1.156 4.161-1.744 7.748-1.744 12.149 0 29.364 26.491 52.848 59.148 52.848l131.36 0.074 90.142 36.613c1.4 0.814 5.091 1.609 9.067 1.609 15.436 0 28.114-11.483 28.114-25.24 0-8.561-4.888-16.272-12.089-20.858l-98.033-37.574c-6.511-4.567-18.824-3.199-18.824-3.199h-59.027l49.493-110.947h109.311c10.791 0 18.357 0.832 24.949-4.364l107.14-89.238c14.97-12.463 15.781-32.471 1.846-46.006-14.037-13.332-37.526-11.372-52.515 1.128l-93.043 83.007zM884.241 362.184c1.952-2.867 6.735-3.981 11.174-3.981 8.476 0 15.536 6.089 15.536 13.679 0 3.626-2.009 6.848-3.961 9.918-95.321 157.758-352.659 110.817-384.209 100.545-5.242-1.72-8.323-6.848-8.323-11.992 0-7.388 7.003-13.494 15.536-13.494 2.64 0 3.941 0.202 6.237 0.759 252.421 49.235 334.617-75.48 348.010-95.434zM946.995 347.652l-339.612-197.4-309.194 727.828c276.682-33.789 628.474-231.849 648.806-530.428z" />
<glyph unicode="&#xe91e;" glyph-name="rain" horiz-adv-x="819" d="M634.88 808.107c-29.013 0-58.027-6.827-83.627-20.48-8.533 93.867-88.747 167.253-184.32 167.253-88.747 0-163.84-63.147-180.907-146.773 0 0 0 0 0 0-102.4 0-186.027-83.627-186.027-184.32 0-102.4 83.627-184.32 184.32-184.32h448.853c102.4 0 184.32 83.627 184.32 184.32 1.707 100.693-81.92 184.32-182.613 184.32zM634.88 471.893h-450.56c-83.627 0-150.187 68.267-150.187 150.187 0 83.627 68.267 150.187 150.187 150.187 5.12 0 8.533 0 13.653 0 8.533 0 17.067 5.12 18.773 15.36 8.533 75.093 73.387 133.12 150.187 133.12 83.627 0 150.187-68.267 150.187-150.187 0-3.413 0-8.533 0-11.947 0-6.827 3.413-13.653 8.533-17.067s13.653-3.413 18.773 1.707c25.6 20.48 58.027 30.72 90.453 30.72 83.627 0 150.187-68.267 150.187-150.187 0-83.627-68.267-151.893-150.187-151.893zM244.053 401.92c-8.533 3.413-18.773-1.707-22.187-10.24l-11.947-32.427c-3.413-8.533 1.707-18.773 10.24-22.187 1.707 0 3.413-1.707 5.12-1.707 6.827 0 13.653 3.413 15.36 11.947l11.947 32.427c3.413 8.533 0 18.773-8.533 22.187zM172.373 210.773c-10.24 3.413-18.773-1.707-22.187-10.24l-11.947-32.427c-3.413-8.533 1.707-18.773 10.24-22.187 1.707 0 3.413-1.707 5.12-1.707 6.827 0 13.653 3.413 15.36 11.947l11.947 32.427c3.413 8.533 0 18.773-8.533 22.187zM208.213 306.347c-8.533 3.413-18.773-1.707-22.187-10.24l-11.947-32.427c-3.413-8.533 1.707-18.773 10.24-22.187 1.707 0 3.413-1.707 5.12-1.707 6.827 0 13.653 3.413 15.36 11.947l11.947 32.427c3.413 8.533 0 18.773-8.533 22.187zM370.347 401.92c-8.533 3.413-18.773-1.707-22.187-10.24l-11.947-32.427c-3.413-8.533 1.707-18.773 10.24-22.187 1.707 0 3.413-1.707 5.12-1.707 6.827 0 13.653 3.413 15.36 11.947l11.947 32.427c5.12 8.533 0 18.773-8.533 22.187zM334.507 306.347c-8.533 3.413-18.773-1.707-22.187-10.24l-11.947-32.427c-3.413-8.533 1.707-18.773 10.24-22.187 1.707 0 3.413-1.707 5.12-1.707 6.827 0 13.653 3.413 15.36 11.947l11.947 32.427c5.12 8.533 0 18.773-8.533 22.187zM298.667 210.773c-8.533 3.413-18.773-1.707-22.187-10.24l-11.947-32.427c-3.413-8.533 1.707-18.773 10.24-22.187 1.707 0 3.413-1.707 5.12-1.707 6.827 0 13.653 3.413 15.36 11.947l11.947 32.427c5.12 8.533 0 18.773-8.533 22.187zM498.347 401.92c-8.533 3.413-18.773-1.707-22.187-10.24l-11.947-32.427c-3.413-8.533 1.707-18.773 10.24-22.187 1.707 0 3.413-1.707 5.12-1.707 6.827 0 13.653 3.413 15.36 11.947l11.947 32.427c3.413 8.533 0 18.773-8.533 22.187zM462.507 306.347c-8.533 3.413-18.773-1.707-22.187-10.24l-11.947-32.427c-3.413-8.533 1.707-18.773 10.24-22.187 1.707 0 3.413-1.707 5.12-1.707 6.827 0 13.653 3.413 15.36 11.947l11.947 32.427c3.413 8.533 0 18.773-8.533 22.187zM426.667 210.773c-8.533 3.413-18.773-1.707-22.187-10.24l-11.947-32.427c-3.413-8.533 1.707-18.773 10.24-22.187 1.707 0 3.413-1.707 5.12-1.707 6.827 0 13.653 3.413 15.36 11.947l11.947 32.427c3.413 8.533 0 18.773-8.533 22.187zM552.96 210.773c-8.533 3.413-18.773-1.707-22.187-10.24l-11.947-32.427c-3.413-8.533 1.707-18.773 10.24-22.187 1.707 0 3.413-1.707 5.12-1.707 6.827 0 13.653 3.413 15.36 11.947l11.947 32.427c5.12 8.533 0 18.773-8.533 22.187zM624.64 401.92c-8.533 3.413-18.773-1.707-22.187-10.24l-11.947-32.427c-3.413-8.533 1.707-18.773 10.24-22.187 1.707 0 3.413-1.707 5.12-1.707 6.827 0 13.653 3.413 15.36 11.947l11.947 32.427c5.12 8.533 0 18.773-8.533 22.187zM588.8 306.347c-8.533 3.413-18.773-1.707-22.187-10.24l-11.947-32.427c-3.413-8.533 1.707-18.773 10.24-22.187 1.707 0 3.413-1.707 5.12-1.707 6.827 0 13.653 3.413 15.36 11.947l11.947 32.427c5.12 8.533 0 18.773-8.533 22.187z" />
<glyph unicode="&#xe91f;" glyph-name="sun" horiz-adv-x="819" d="M409.6 350.72c-109.227 0-199.68 88.747-199.68 199.68 0 109.227 88.747 199.68 199.68 199.68 109.227 0 199.68-88.747 199.68-199.68 0-109.227-90.453-199.68-199.68-199.68zM409.6 715.947c-90.453 0-165.547-73.387-165.547-165.547s73.387-165.547 165.547-165.547 165.547 73.387 165.547 165.547-75.093 165.547-165.547 165.547zM409.6 813.227c-10.24 0-17.067 6.827-17.067 17.067v104.107c0 10.24 6.827 17.067 17.067 17.067s17.067-6.827 17.067-17.067v-104.107c0-10.24-6.827-17.067-17.067-17.067zM409.6 149.333c-10.24 0-17.067 6.827-17.067 17.067v104.107c0 10.24 6.827 17.067 17.067 17.067s17.067-6.827 17.067-17.067v-104.107c0-10.24-6.827-17.067-17.067-17.067zM607.573 731.307c-5.12 0-8.533 1.707-11.947 5.12-6.827 6.827-6.827 17.067 0 23.893l73.387 73.387c6.827 6.827 17.067 6.827 23.893 0s6.827-17.067 0-23.893l-73.387-73.387c-3.413-3.413-8.533-5.12-11.947-5.12zM138.24 261.973c-5.12 0-8.533 1.707-11.947 5.12-6.827 6.827-6.827 17.067 0 23.893l73.387 73.387c6.827 6.827 17.067 6.827 23.893 0s6.827-17.067 0-23.893l-73.387-73.387c-3.413-3.413-8.533-5.12-11.947-5.12zM793.6 533.333h-104.107c-10.24 0-17.067 6.827-17.067 17.067s6.827 17.067 17.067 17.067h104.107c10.24 0 17.067-6.827 17.067-17.067s-6.827-17.067-17.067-17.067zM129.707 533.333h-104.107c-10.24 0-17.067 6.827-17.067 17.067s6.827 17.067 17.067 17.067h104.107c10.24 0 17.067-6.827 17.067-17.067s-6.827-17.067-17.067-17.067zM680.96 261.973c-5.12 0-8.533 1.707-11.947 5.12l-73.387 73.387c-6.827 6.827-6.827 17.067 0 23.893s17.067 6.827 23.893 0l73.387-73.387c6.827-6.827 6.827-17.067 0-23.893-3.413-3.413-6.827-5.12-11.947-5.12zM211.627 731.307c-5.12 0-8.533 1.707-11.947 5.12l-73.387 73.387c-6.827 6.827-6.827 17.067 0 23.893s17.067 6.827 23.893 0l73.387-73.387c6.827-6.827 6.827-17.067 0-23.893-3.413-3.413-6.827-5.12-11.947-5.12z" />
<glyph unicode="&#xe920;" glyph-name="temp" horiz-adv-x="819" d="M334.234 160.461c109.773-21.299 204.8 62.259 204.8 168.755 0 55.706-27.853 106.496-70.451 137.626v375.194c0 55.706-44.237 101.581-101.581 101.581-55.706 0-101.581-45.875-101.581-101.581v-375.194c-50.79-37.683-80.282-101.581-65.536-173.67 13.107-65.536 67.174-119.603 134.349-132.71zM286.72 435.712l14.746 11.469v393.216c0 36.045 29.491 63.898 63.898 63.898 36.045 0 65.536-29.491 65.536-63.898v-393.216l14.746-11.469c34.406-24.576 54.067-65.536 54.067-108.134 0-36.045-14.746-70.451-39.322-95.027-26.214-24.576-58.982-39.322-95.027-39.322-67.174 0-119.603 47.514-131.072 106.496-8.192 54.067 11.469 106.496 52.429 135.987zM367.002 232.55c26.214 0 50.79 9.83 68.813 27.853s27.853 42.598 27.853 68.813c0 65.536-55.706 86.835-70.451 99.942v276.89h-54.067v-276.89c-11.469-13.107-83.558-39.322-67.174-119.603 8.192-42.598 45.875-77.005 95.027-77.005zM604.57 832.205h-93.389v-37.683h93.389c9.83 0 18.022 8.192 18.022 18.022 1.638 11.469-6.554 19.661-18.022 19.661zM586.547 714.24c0 9.83-8.192 18.022-18.022 18.022h-55.706v-37.683h55.706c9.83 1.638 18.022 9.83 18.022 19.661zM624.23 615.936c0 9.83-8.192 18.022-18.022 18.022h-93.389v-37.683h93.389c9.83 0 18.022 9.83 18.022 19.661z" />
</font>
</defs>
</svg>
